<?xml version="1.0" standalone="no"?>
<!DOCTYPE svg PUBLIC "-//W3C//DTD SVG 1.1//EN" "http://www.w3.org/Graphics/SVG/1.1/DTD/svg11.dtd">
<svg version="1.1" width="1200" height="438" onload="init(evt)" viewBox="0 0 1200 438" xmlns="http://www.w3.org/2000/svg" xmlns:xlink="http://www.w3.org/1999/xlink">
<!-- Flame graph stack visualization. See https://github.com/brendangregg/FlameGraph for latest version, and http://www.brendangregg.com/flamegraphs.html for examples. -->
<!-- NOTES:  -->
<defs>
	<linearGradient id="background" y1="0" y2="1" x1="0" x2="0" >
		<stop stop-color="#eeeeee" offset="5%" />
		<stop stop-color="#eeeeb0" offset="95%" />
	</linearGradient>
</defs>
<style type="text/css">
	text { font-family:Verdana; font-size:12px; fill:rgb(0,0,0); }
	#search, #ignorecase { opacity:0.1; cursor:pointer; }
	#search:hover, #search.show, #ignorecase:hover, #ignorecase.show { opacity:1; }
	#subtitle { text-anchor:middle; font-color:rgb(160,160,160); }
	#title { text-anchor:middle; font-size:17px}
	#unzoom { cursor:pointer; }
	#frames > *:hover { stroke:black; stroke-width:0.5; cursor:pointer; }
	.hide { display:none; }
	.parent { opacity:0.5; }
</style>
<script type="text/ecmascript">
<![CDATA[
	"use strict";
	var details, searchbtn, unzoombtn, matchedtxt, svg, searching, currentSearchTerm, ignorecase, ignorecaseBtn;
	function init(evt) {
		details = document.getElementById("details").firstChild;
		searchbtn = document.getElementById("search");
		ignorecaseBtn = document.getElementById("ignorecase");
		unzoombtn = document.getElementById("unzoom");
		matchedtxt = document.getElementById("matched");
		svg = document.getElementsByTagName("svg")[0];
		searching = 0;
		currentSearchTerm = null;
	}

	window.addEventListener("click", function(e) {
		var target = find_group(e.target);
		if (target) {
			if (target.nodeName == "a") {
				if (e.ctrlKey === false) return;
				e.preventDefault();
			}
			if (target.classList.contains("parent")) unzoom();
			zoom(target);
		}
		else if (e.target.id == "unzoom") unzoom();
		else if (e.target.id == "search") search_prompt();
		else if (e.target.id == "ignorecase") toggle_ignorecase();
	}, false)

	// mouse-over for info
	// show
	window.addEventListener("mouseover", function(e) {
		var target = find_group(e.target);
		if (target) details.nodeValue = "Function: " + g_to_text(target);
	}, false)

	// clear
	window.addEventListener("mouseout", function(e) {
		var target = find_group(e.target);
		if (target) details.nodeValue = ' ';
	}, false)

	// ctrl-F for search
	window.addEventListener("keydown",function (e) {
		if (e.keyCode === 114 || (e.ctrlKey && e.keyCode === 70)) {
			e.preventDefault();
			search_prompt();
		}
	}, false)

	// ctrl-I to toggle case-sensitive search
	window.addEventListener("keydown",function (e) {
		if (e.ctrlKey && e.keyCode === 73) {
			e.preventDefault();
			toggle_ignorecase();
		}
	}, false)

	// functions
	function find_child(node, selector) {
		var children = node.querySelectorAll(selector);
		if (children.length) return children[0];
		return;
	}
	function find_group(node) {
		var parent = node.parentElement;
		if (!parent) return;
		if (parent.id == "frames") return node;
		return find_group(parent);
	}
	function orig_save(e, attr, val) {
		if (e.attributes["_orig_" + attr] != undefined) return;
		if (e.attributes[attr] == undefined) return;
		if (val == undefined) val = e.attributes[attr].value;
		e.setAttribute("_orig_" + attr, val);
	}
	function orig_load(e, attr) {
		if (e.attributes["_orig_"+attr] == undefined) return;
		e.attributes[attr].value = e.attributes["_orig_" + attr].value;
		e.removeAttribute("_orig_"+attr);
	}
	function g_to_text(e) {
		var text = find_child(e, "title").firstChild.nodeValue;
		return (text)
	}
	function g_to_func(e) {
		var func = g_to_text(e);
		// if there's any manipulation we want to do to the function
		// name before it's searched, do it here before returning.
		return (func);
	}
	function update_text(e) {
		var r = find_child(e, "rect");
		var t = find_child(e, "text");
		var w = parseFloat(r.attributes.width.value) -3;
		var txt = find_child(e, "title").textContent.replace(/\([^(]*\)$/,"");
		t.attributes.x.value = parseFloat(r.attributes.x.value) + 3;

		// Smaller than this size won't fit anything
		if (w < 2 * 12 * 0.59) {
			t.textContent = "";
			return;
		}

		t.textContent = txt;
		// Fit in full text width
		if (/^ *$/.test(txt) || t.getSubStringLength(0, txt.length) < w)
			return;

		for (var x = txt.length - 2; x > 0; x--) {
			if (t.getSubStringLength(0, x + 2) <= w) {
				t.textContent = txt.substring(0, x) + "..";
				return;
			}
		}
		t.textContent = "";
	}

	// zoom
	function zoom_reset(e) {
		if (e.attributes != undefined) {
			orig_load(e, "x");
			orig_load(e, "width");
		}
		if (e.childNodes == undefined) return;
		for (var i = 0, c = e.childNodes; i < c.length; i++) {
			zoom_reset(c[i]);
		}
	}
	function zoom_child(e, x, ratio) {
		if (e.attributes != undefined) {
			if (e.attributes.x != undefined) {
				orig_save(e, "x");
				e.attributes.x.value = (parseFloat(e.attributes.x.value) - x - 10) * ratio + 10;
				if (e.tagName == "text")
					e.attributes.x.value = find_child(e.parentNode, "rect[x]").attributes.x.value + 3;
			}
			if (e.attributes.width != undefined) {
				orig_save(e, "width");
				e.attributes.width.value = parseFloat(e.attributes.width.value) * ratio;
			}
		}

		if (e.childNodes == undefined) return;
		for (var i = 0, c = e.childNodes; i < c.length; i++) {
			zoom_child(c[i], x - 10, ratio);
		}
	}
	function zoom_parent(e) {
		if (e.attributes) {
			if (e.attributes.x != undefined) {
				orig_save(e, "x");
				e.attributes.x.value = 10;
			}
			if (e.attributes.width != undefined) {
				orig_save(e, "width");
				e.attributes.width.value = parseInt(svg.width.baseVal.value) - (10 * 2);
			}
		}
		if (e.childNodes == undefined) return;
		for (var i = 0, c = e.childNodes; i < c.length; i++) {
			zoom_parent(c[i]);
		}
	}
	function zoom(node) {
		var attr = find_child(node, "rect").attributes;
		var width = parseFloat(attr.width.value);
		var xmin = parseFloat(attr.x.value);
		var xmax = parseFloat(xmin + width);
		var ymin = parseFloat(attr.y.value);
		var ratio = (svg.width.baseVal.value - 2 * 10) / width;

		// XXX: Workaround for JavaScript float issues (fix me)
		var fudge = 0.0001;

		unzoombtn.classList.remove("hide");

		var el = document.getElementById("frames").children;
		for (var i = 0; i < el.length; i++) {
			var e = el[i];
			var a = find_child(e, "rect").attributes;
			var ex = parseFloat(a.x.value);
			var ew = parseFloat(a.width.value);
			var upstack;
			// Is it an ancestor
			if (0 == 0) {
				upstack = parseFloat(a.y.value) > ymin;
			} else {
				upstack = parseFloat(a.y.value) < ymin;
			}
			if (upstack) {
				// Direct ancestor
				if (ex <= xmin && (ex+ew+fudge) >= xmax) {
					e.classList.add("parent");
					zoom_parent(e);
					update_text(e);
				}
				// not in current path
				else
					e.classList.add("hide");
			}
			// Children maybe
			else {
				// no common path
				if (ex < xmin || ex + fudge >= xmax) {
					e.classList.add("hide");
				}
				else {
					zoom_child(e, xmin, ratio);
					update_text(e);
				}
			}
		}
		search();
	}
	function unzoom() {
		unzoombtn.classList.add("hide");
		var el = document.getElementById("frames").children;
		for(var i = 0; i < el.length; i++) {
			el[i].classList.remove("parent");
			el[i].classList.remove("hide");
			zoom_reset(el[i]);
			update_text(el[i]);
		}
		search();
	}

	// search
	function toggle_ignorecase() {
		ignorecase = !ignorecase;
		if (ignorecase) {
			ignorecaseBtn.classList.add("show");
		} else {
			ignorecaseBtn.classList.remove("show");
		}
		reset_search();
		search();
	}
	function reset_search() {
		var el = document.querySelectorAll("#frames rect");
		for (var i = 0; i < el.length; i++) {
			orig_load(el[i], "fill")
		}
	}
	function search_prompt() {
		if (!searching) {
			var term = prompt("Enter a search term (regexp " +
			    "allowed, eg: ^ext4_)"
			    + (ignorecase ? ", ignoring case" : "")
			    + "\nPress Ctrl-i to toggle case sensitivity", "");
			if (term != null) {
				currentSearchTerm = term;
				search();
			}
		} else {
			reset_search();
			searching = 0;
			currentSearchTerm = null;
			searchbtn.classList.remove("show");
			searchbtn.firstChild.nodeValue = "Search"
			matchedtxt.classList.add("hide");
			matchedtxt.firstChild.nodeValue = ""
		}
	}
	function search(term) {
		if (currentSearchTerm === null) return;
		var term = currentSearchTerm;

		var re = new RegExp(term, ignorecase ? 'i' : '');
		var el = document.getElementById("frames").children;
		var matches = new Object();
		var maxwidth = 0;
		for (var i = 0; i < el.length; i++) {
			var e = el[i];
			var func = g_to_func(e);
			var rect = find_child(e, "rect");
			if (func == null || rect == null)
				continue;

			// Save max width. Only works as we have a root frame
			var w = parseFloat(rect.attributes.width.value);
			if (w > maxwidth)
				maxwidth = w;

			if (func.match(re)) {
				// highlight
				var x = parseFloat(rect.attributes.x.value);
				orig_save(rect, "fill");
				rect.attributes.fill.value = "rgb(230,0,230)";

				// remember matches
				if (matches[x] == undefined) {
					matches[x] = w;
				} else {
					if (w > matches[x]) {
						// overwrite with parent
						matches[x] = w;
					}
				}
				searching = 1;
			}
		}
		if (!searching)
			return;

		searchbtn.classList.add("show");
		searchbtn.firstChild.nodeValue = "Reset Search";

		// calculate percent matched, excluding vertical overlap
		var count = 0;
		var lastx = -1;
		var lastw = 0;
		var keys = Array();
		for (k in matches) {
			if (matches.hasOwnProperty(k))
				keys.push(k);
		}
		// sort the matched frames by their x location
		// ascending, then width descending
		keys.sort(function(a, b){
			return a - b;
		});
		// Step through frames saving only the biggest bottom-up frames
		// thanks to the sort order. This relies on the tree property
		// where children are always smaller than their parents.
		var fudge = 0.0001;	// JavaScript floating point
		for (var k in keys) {
			var x = parseFloat(keys[k]);
			var w = matches[keys[k]];
			if (x >= lastx + lastw - fudge) {
				count += w;
				lastx = x;
				lastw = w;
			}
		}
		// display matched percent
		matchedtxt.classList.remove("hide");
		var pct = 100 * count / maxwidth;
		if (pct != 100) pct = pct.toFixed(1)
		matchedtxt.firstChild.nodeValue = "Matched: " + pct + "%";
	}
]]>
</script>
<rect x="0.0" y="0" width="1200.0" height="438.0" fill="url(#background)"  />
<text id="title" x="600.00" y="24" >Flame Graph</text>
<text id="details" x="10.00" y="421" > </text>
<text id="unzoom" x="10.00" y="24" class="hide">Reset Zoom</text>
<text id="search" x="1090.00" y="24" >Search</text>
<text id="ignorecase" x="1174.00" y="24" >ic</text>
<text id="matched" x="1090.00" y="421" > </text>
<g id="frames">
<g >
<title>cpu_startup_entry (6 samples, 13.64%)</title><rect x="1002.3" y="325" width="160.9" height="15.0" fill="rgb(243,118,42)" rx="2" ry="2" />
<text  x="1005.27" y="335.5" >cpu_startup_entry</text>
</g>
<g >
<title>skb_copy_datagram_iter (1 samples, 2.27%)</title><rect x="10.0" y="197" width="26.8" height="15.0" fill="rgb(240,143,38)" rx="2" ry="2" />
<text  x="13.00" y="207.5" >s..</text>
</g>
<g >
<title>swapper (6 samples, 13.64%)</title><rect x="1002.3" y="373" width="160.9" height="15.0" fill="rgb(243,141,41)" rx="2" ry="2" />
<text  x="1005.27" y="383.5" >swapper</text>
</g>
<g >
<title>entry_SYSCALL_64_after_hwframe (1 samples, 2.27%)</title><rect x="10.0" y="325" width="26.8" height="15.0" fill="rgb(241,196,40)" rx="2" ry="2" />
<text  x="13.00" y="335.5" >e..</text>
</g>
<g >
<title>mwait_idle_with_hints.constprop.0 (6 samples, 13.64%)</title><rect x="1002.3" y="245" width="160.9" height="15.0" fill="rgb(236,109,34)" rx="2" ry="2" />
<text  x="1005.27" y="255.5" >mwait_idle_with_hint..</text>
</g>
<g >
<title>ksys_write (1 samples, 2.27%)</title><rect x="117.3" y="181" width="26.8" height="15.0" fill="rgb(240,145,38)" rx="2" ry="2" />
<text  x="120.27" y="191.5" >k..</text>
</g>
<g >
<title>__libc_start_main (33 samples, 75.00%)</title><rect x="117.3" y="341" width="885.0" height="15.0" fill="rgb(247,154,46)" rx="2" ry="2" />
<text  x="120.27" y="351.5" >__libc_start_main</text>
</g>
<g >
<title>do_syscall_64 (1 samples, 2.27%)</title><rect x="90.5" y="325" width="26.8" height="15.0" fill="rgb(232,189,30)" rx="2" ry="2" />
<text  x="93.45" y="335.5" >d..</text>
</g>
<g >
<title>native_write_msr (32 samples, 72.73%)</title><rect x="144.1" y="37" width="858.2" height="15.0" fill="rgb(241,158,40)" rx="2" ry="2" />
<text  x="147.09" y="47.5" >native_write_msr</text>
</g>
<g >
<title>intel_idle (6 samples, 13.64%)</title><rect x="1002.3" y="261" width="160.9" height="15.0" fill="rgb(240,164,39)" rx="2" ry="2" />
<text  x="1005.27" y="271.5" >intel_idle</text>
</g>
<g >
<title>Gecko_IOThread (1 samples, 2.27%)</title><rect x="36.8" y="373" width="26.8" height="15.0" fill="rgb(241,202,40)" rx="2" ry="2" />
<text  x="39.82" y="383.5" >G..</text>
</g>
<g >
<title>[unknown] (33 samples, 75.00%)</title><rect x="117.3" y="357" width="885.0" height="15.0" fill="rgb(242,180,40)" rx="2" ry="2" />
<text  x="120.27" y="367.5" >[unknown]</text>
</g>
<g >
<title>start_secondary (6 samples, 13.64%)</title><rect x="1002.3" y="341" width="160.9" height="15.0" fill="rgb(248,156,47)" rx="2" ry="2" />
<text  x="1005.27" y="351.5" >start_secondary</text>
</g>
<g >
<title>mmap_region (1 samples, 2.27%)</title><rect x="90.5" y="261" width="26.8" height="15.0" fill="rgb(247,104,46)" rx="2" ry="2" />
<text  x="93.45" y="271.5" >m..</text>
</g>
<g >
<title>__GI___ioctl (32 samples, 72.73%)</title><rect x="144.1" y="261" width="858.2" height="15.0" fill="rgb(232,119,30)" rx="2" ry="2" />
<text  x="147.09" y="271.5" >__GI___ioctl</text>
</g>
<g >
<title>vm_mmap_pgoff (1 samples, 2.27%)</title><rect x="90.5" y="293" width="26.8" height="15.0" fill="rgb(246,80,45)" rx="2" ry="2" />
<text  x="93.45" y="303.5" >v..</text>
</g>
<g >
<title>new_sync_write (1 samples, 2.27%)</title><rect x="117.3" y="149" width="26.8" height="15.0" fill="rgb(240,184,38)" rx="2" ry="2" />
<text  x="120.27" y="159.5" >n..</text>
</g>
<g >
<title>abrt-action-gen (1 samples, 2.27%)</title><rect x="63.6" y="373" width="26.9" height="15.0" fill="rgb(247,104,47)" rx="2" ry="2" />
<text  x="66.64" y="383.5" >a..</text>
</g>
<g >
<title>vfs_write (1 samples, 2.27%)</title><rect x="117.3" y="165" width="26.8" height="15.0" fill="rgb(240,128,38)" rx="2" ry="2" />
<text  x="120.27" y="175.5" >v..</text>
</g>
<g >
<title>[perf] (33 samples, 75.00%)</title><rect x="117.3" y="277" width="885.0" height="15.0" fill="rgb(242,195,41)" rx="2" ry="2" />
<text  x="120.27" y="287.5" >[perf]</text>
</g>
<g >
<title>vma_merge (1 samples, 2.27%)</title><rect x="90.5" y="245" width="26.8" height="15.0" fill="rgb(244,112,43)" rx="2" ry="2" />
<text  x="93.45" y="255.5" >v..</text>
</g>
<g >
<title>[libsqlite3.so.0.8.6] (1 samples, 2.27%)</title><rect x="1163.2" y="357" width="26.8" height="15.0" fill="rgb(231,147,29)" rx="2" ry="2" />
<text  x="1166.18" y="367.5" >[..</text>
</g>
<g >
<title>do_mmap (1 samples, 2.27%)</title><rect x="90.5" y="277" width="26.8" height="15.0" fill="rgb(240,189,39)" rx="2" ry="2" />
<text  x="93.45" y="287.5" >d..</text>
</g>
<g >
<title>do_syscall_64 (32 samples, 72.73%)</title><rect x="144.1" y="229" width="858.2" height="15.0" fill="rgb(232,189,30)" rx="2" ry="2" />
<text  x="147.09" y="239.5" >do_syscall_64</text>
</g>
<g >
<title>[perf] (33 samples, 75.00%)</title><rect x="117.3" y="325" width="885.0" height="15.0" fill="rgb(242,195,41)" rx="2" ry="2" />
<text  x="120.27" y="335.5" >[perf]</text>
</g>
<g >
<title>do_syscall_64 (1 samples, 2.27%)</title><rect x="117.3" y="197" width="26.8" height="15.0" fill="rgb(232,189,30)" rx="2" ry="2" />
<text  x="120.27" y="207.5" >d..</text>
</g>
<g >
<title>_perf_ioctl (32 samples, 72.73%)</title><rect x="144.1" y="165" width="858.2" height="15.0" fill="rgb(232,163,30)" rx="2" ry="2" />
<text  x="147.09" y="175.5" >_perf_ioctl</text>
</g>
<g >
<title>do_mmap (1 samples, 2.27%)</title><rect x="63.6" y="277" width="26.9" height="15.0" fill="rgb(240,189,39)" rx="2" ry="2" />
<text  x="66.64" y="287.5" >d..</text>
</g>
<g >
<title>__libc_recvmsg (1 samples, 2.27%)</title><rect x="10.0" y="341" width="26.8" height="15.0" fill="rgb(243,154,42)" rx="2" ry="2" />
<text  x="13.00" y="351.5" >_..</text>
</g>
<g >
<title>entry_SYSCALL_64_after_hwframe (32 samples, 72.73%)</title><rect x="144.1" y="245" width="858.2" height="15.0" fill="rgb(241,196,40)" rx="2" ry="2" />
<text  x="147.09" y="255.5" >entry_SYSCALL_64_after_hwframe</text>
</g>
<g >
<title>_copy_to_iter (1 samples, 2.27%)</title><rect x="10.0" y="165" width="26.8" height="15.0" fill="rgb(240,180,38)" rx="2" ry="2" />
<text  x="13.00" y="175.5" >_..</text>
</g>
<g >
<title>mmap_region (1 samples, 2.27%)</title><rect x="63.6" y="261" width="26.9" height="15.0" fill="rgb(247,104,46)" rx="2" ry="2" />
<text  x="66.64" y="271.5" >m..</text>
</g>
<g >
<title>do_syscall_64 (1 samples, 2.27%)</title><rect x="63.6" y="325" width="26.9" height="15.0" fill="rgb(232,189,30)" rx="2" ry="2" />
<text  x="66.64" y="335.5" >d..</text>
</g>
<g >
<title>___sys_recvmsg (1 samples, 2.27%)</title><rect x="10.0" y="277" width="26.8" height="15.0" fill="rgb(243,119,42)" rx="2" ry="2" />
<text  x="13.00" y="287.5" >_..</text>
</g>
<g >
<title>remote_function (32 samples, 72.73%)</title><rect x="144.1" y="85" width="858.2" height="15.0" fill="rgb(247,184,46)" rx="2" ry="2" />
<text  x="147.09" y="95.5" >remote_function</text>
</g>
<g >
<title>perf_ioctl (32 samples, 72.73%)</title><rect x="144.1" y="181" width="858.2" height="15.0" fill="rgb(232,184,30)" rx="2" ry="2" />
<text  x="147.09" y="191.5" >perf_ioctl</text>
</g>
<g >
<title>entry_SYSCALL_64_after_hwframe (1 samples, 2.27%)</title><rect x="90.5" y="341" width="26.8" height="15.0" fill="rgb(241,196,40)" rx="2" ry="2" />
<text  x="93.45" y="351.5" >e..</text>
</g>
<g >
<title>__split_vma (1 samples, 2.27%)</title><rect x="63.6" y="229" width="26.9" height="15.0" fill="rgb(224,132,21)" rx="2" ry="2" />
<text  x="66.64" y="239.5" >_..</text>
</g>
<g >
<title>[perf] (33 samples, 75.00%)</title><rect x="117.3" y="293" width="885.0" height="15.0" fill="rgb(242,195,41)" rx="2" ry="2" />
<text  x="120.27" y="303.5" >[perf]</text>
</g>
<g >
<title>vm_mmap_pgoff (1 samples, 2.27%)</title><rect x="63.6" y="293" width="26.9" height="15.0" fill="rgb(246,80,45)" rx="2" ry="2" />
<text  x="66.64" y="303.5" >v..</text>
</g>
<g >
<title>[perf] (33 samples, 75.00%)</title><rect x="117.3" y="309" width="885.0" height="15.0" fill="rgb(242,195,41)" rx="2" ry="2" />
<text  x="120.27" y="319.5" >[perf]</text>
</g>
<g >
<title>__vma_adjust (1 samples, 2.27%)</title><rect x="90.5" y="229" width="26.8" height="15.0" fill="rgb(232,122,30)" rx="2" ry="2" />
<text  x="93.45" y="239.5" >_..</text>
</g>
<g >
<title>__skb_datagram_iter (1 samples, 2.27%)</title><rect x="10.0" y="181" width="26.8" height="15.0" fill="rgb(240,132,38)" rx="2" ry="2" />
<text  x="13.00" y="191.5" >_..</text>
</g>
<g >
<title>generic_exec_single (32 samples, 72.73%)</title><rect x="144.1" y="101" width="858.2" height="15.0" fill="rgb(238,189,36)" rx="2" ry="2" />
<text  x="147.09" y="111.5" >generic_exec_single</text>
</g>
<g >
<title>__libc_write (1 samples, 2.27%)</title><rect x="117.3" y="229" width="26.8" height="15.0" fill="rgb(240,154,38)" rx="2" ry="2" />
<text  x="120.27" y="239.5" >_..</text>
</g>
<g >
<title>perf_event_for_each_child (32 samples, 72.73%)</title><rect x="144.1" y="149" width="858.2" height="15.0" fill="rgb(238,184,37)" rx="2" ry="2" />
<text  x="147.09" y="159.5" >perf_event_for_each_child</text>
</g>
<g >
<title>__x64_sys_ioctl (32 samples, 72.73%)</title><rect x="144.1" y="213" width="858.2" height="15.0" fill="rgb(232,154,30)" rx="2" ry="2" />
<text  x="147.09" y="223.5" >__x64_sys_ioctl</text>
</g>
<g >
<title>unix_stream_read_generic (1 samples, 2.27%)</title><rect x="10.0" y="229" width="26.8" height="15.0" fill="rgb(228,145,25)" rx="2" ry="2" />
<text  x="13.00" y="239.5" >u..</text>
</g>
<g >
<title>do_syscall_64 (1 samples, 2.27%)</title><rect x="10.0" y="309" width="26.8" height="15.0" fill="rgb(232,189,30)" rx="2" ry="2" />
<text  x="13.00" y="319.5" >d..</text>
</g>
<g >
<title>copy_user_enhanced_fast_string (1 samples, 2.27%)</title><rect x="10.0" y="149" width="26.8" height="15.0" fill="rgb(243,140,42)" rx="2" ry="2" />
<text  x="13.00" y="159.5" >c..</text>
</g>
<g >
<title>vma_interval_tree_insert (1 samples, 2.27%)</title><rect x="63.6" y="197" width="26.9" height="15.0" fill="rgb(236,112,34)" rx="2" ry="2" />
<text  x="66.64" y="207.5" >v..</text>
</g>
<g >
<title>event_function_call (32 samples, 72.73%)</title><rect x="144.1" y="133" width="858.2" height="15.0" fill="rgb(230,165,28)" rx="2" ry="2" />
<text  x="147.09" y="143.5" >event_function_call</text>
</g>
<g >
<title>gdb (1 samples, 2.27%)</title><rect x="90.5" y="373" width="26.8" height="15.0" fill="rgb(235,194,33)" rx="2" ry="2" />
<text  x="93.45" y="383.5" >gdb</text>
</g>
<g >
<title>ksys_mmap_pgoff (1 samples, 2.27%)</title><rect x="63.6" y="309" width="26.9" height="15.0" fill="rgb(246,145,45)" rx="2" ry="2" />
<text  x="66.64" y="319.5" >k..</text>
</g>
<g >
<title>mmap64 (1 samples, 2.27%)</title><rect x="90.5" y="357" width="26.8" height="15.0" fill="rgb(237,104,36)" rx="2" ry="2" />
<text  x="93.45" y="367.5" >m..</text>
</g>
<g >
<title>__sys_recvmsg (1 samples, 2.27%)</title><rect x="10.0" y="293" width="26.8" height="15.0" fill="rgb(243,132,42)" rx="2" ry="2" />
<text  x="13.00" y="303.5" >_..</text>
</g>
<g >
<title>all (44 samples, 100%)</title><rect x="10.0" y="389" width="1180.0" height="15.0" fill="rgb(255,230,55)" rx="2" ry="2" />
<text  x="13.00" y="399.5" ></text>
</g>
<g >
<title>generic_perform_write (1 samples, 2.27%)</title><rect x="117.3" y="117" width="26.8" height="15.0" fill="rgb(240,189,38)" rx="2" ry="2" />
<text  x="120.27" y="127.5" >g..</text>
</g>
<g >
<title>[libxul.so] (1 samples, 2.27%)</title><rect x="36.8" y="357" width="26.8" height="15.0" fill="rgb(243,147,42)" rx="2" ry="2" />
<text  x="39.82" y="367.5" >[..</text>
</g>
<g >
<title>event_function (32 samples, 72.73%)</title><rect x="144.1" y="69" width="858.2" height="15.0" fill="rgb(247,165,46)" rx="2" ry="2" />
<text  x="147.09" y="79.5" >event_function</text>
</g>
<g >
<title>tracker-miner-f (1 samples, 2.27%)</title><rect x="1163.2" y="373" width="26.8" height="15.0" fill="rgb(246,158,45)" rx="2" ry="2" />
<text  x="1166.18" y="383.5" >t..</text>
</g>
<g >
<title>cpuidle_enter_state (6 samples, 13.64%)</title><rect x="1002.3" y="277" width="160.9" height="15.0" fill="rgb(245,118,45)" rx="2" ry="2" />
<text  x="1005.27" y="287.5" >cpuidle_enter_state</text>
</g>
<g >
<title>perf (33 samples, 75.00%)</title><rect x="117.3" y="373" width="885.0" height="15.0" fill="rgb(243,184,42)" rx="2" ry="2" />
<text  x="120.27" y="383.5" >perf</text>
</g>
<g >
<title>ext4_buffered_write_iter (1 samples, 2.27%)</title><rect x="117.3" y="133" width="26.8" height="15.0" fill="rgb(240,145,38)" rx="2" ry="2" />
<text  x="120.27" y="143.5" >e..</text>
</g>
<g >
<title>cpuidle_enter (6 samples, 13.64%)</title><rect x="1002.3" y="293" width="160.9" height="15.0" fill="rgb(240,118,38)" rx="2" ry="2" />
<text  x="1005.27" y="303.5" >cpuidle_enter</text>
</g>
<g >
<title>entry_SYSCALL_64_after_hwframe (1 samples, 2.27%)</title><rect x="63.6" y="341" width="26.9" height="15.0" fill="rgb(241,196,40)" rx="2" ry="2" />
<text  x="66.64" y="351.5" >e..</text>
</g>
<g >
<title>secondary_startup_64 (6 samples, 13.64%)</title><rect x="1002.3" y="357" width="160.9" height="15.0" fill="rgb(232,170,30)" rx="2" ry="2" />
<text  x="1005.27" y="367.5" >secondary_startup_64</text>
</g>
<g >
<title>entry_SYSCALL_64_after_hwframe (1 samples, 2.27%)</title><rect x="117.3" y="213" width="26.8" height="15.0" fill="rgb(241,196,40)" rx="2" ry="2" />
<text  x="120.27" y="223.5" >e..</text>
</g>
<g >
<title>____sys_recvmsg (1 samples, 2.27%)</title><rect x="10.0" y="261" width="26.8" height="15.0" fill="rgb(243,119,42)" rx="2" ry="2" />
<text  x="13.00" y="271.5" >_..</text>
</g>
<g >
<title>smp_call_function_single (32 samples, 72.73%)</title><rect x="144.1" y="117" width="858.2" height="15.0" fill="rgb(238,126,36)" rx="2" ry="2" />
<text  x="147.09" y="127.5" >smp_call_function_single</text>
</g>
<g >
<title>[perf] (1 samples, 2.27%)</title><rect x="117.3" y="261" width="26.8" height="15.0" fill="rgb(242,195,41)" rx="2" ry="2" />
<text  x="120.27" y="271.5" >[..</text>
</g>
<g >
<title>mmap64 (1 samples, 2.27%)</title><rect x="63.6" y="357" width="26.9" height="15.0" fill="rgb(237,104,36)" rx="2" ry="2" />
<text  x="66.64" y="367.5" >m..</text>
</g>
<g >
<title>__intel_pmu_enable_all.constprop.0 (32 samples, 72.73%)</title><rect x="144.1" y="53" width="858.2" height="15.0" fill="rgb(236,125,34)" rx="2" ry="2" />
<text  x="147.09" y="63.5" >__intel_pmu_enable_all.constprop.0</text>
</g>
<g >
<title>do_idle (6 samples, 13.64%)</title><rect x="1002.3" y="309" width="160.9" height="15.0" fill="rgb(240,189,39)" rx="2" ry="2" />
<text  x="1005.27" y="319.5" >do_idle</text>
</g>
<g >
<title>[unknown] (1 samples, 2.27%)</title><rect x="10.0" y="357" width="26.8" height="15.0" fill="rgb(242,180,40)" rx="2" ry="2" />
<text  x="13.00" y="367.5" >[..</text>
</g>
<g >
<title>ksys_mmap_pgoff (1 samples, 2.27%)</title><rect x="90.5" y="309" width="26.8" height="15.0" fill="rgb(246,145,45)" rx="2" ry="2" />
<text  x="93.45" y="319.5" >k..</text>
</g>
<g >
<title>ksys_ioctl (32 samples, 72.73%)</title><rect x="144.1" y="197" width="858.2" height="15.0" fill="rgb(232,145,30)" rx="2" ry="2" />
<text  x="147.09" y="207.5" >ksys_ioctl</text>
</g>
<g >
<title>__vma_adjust (1 samples, 2.27%)</title><rect x="63.6" y="213" width="26.9" height="15.0" fill="rgb(232,122,30)" rx="2" ry="2" />
<text  x="66.64" y="223.5" >_..</text>
</g>
<g >
<title>unix_stream_recvmsg (1 samples, 2.27%)</title><rect x="10.0" y="245" width="26.8" height="15.0" fill="rgb(243,145,42)" rx="2" ry="2" />
<text  x="13.00" y="255.5" >u..</text>
</g>
<g >
<title>Chrome_~dThread (1 samples, 2.27%)</title><rect x="10.0" y="373" width="26.8" height="15.0" fill="rgb(241,129,40)" rx="2" ry="2" />
<text  x="13.00" y="383.5" >C..</text>
</g>
<g >
<title>unix_stream_read_actor (1 samples, 2.27%)</title><rect x="10.0" y="213" width="26.8" height="15.0" fill="rgb(241,145,39)" rx="2" ry="2" />
<text  x="13.00" y="223.5" >u..</text>
</g>
<g >
<title>__do_munmap (1 samples, 2.27%)</title><rect x="63.6" y="245" width="26.9" height="15.0" fill="rgb(240,141,39)" rx="2" ry="2" />
<text  x="66.64" y="255.5" >_..</text>
</g>
<g >
<title>iov_iter_fault_in_readable (1 samples, 2.27%)</title><rect x="117.3" y="101" width="26.8" height="15.0" fill="rgb(241,152,40)" rx="2" ry="2" />
<text  x="120.27" y="111.5" >i..</text>
</g>
<g >
<title>[perf] (1 samples, 2.27%)</title><rect x="117.3" y="245" width="26.8" height="15.0" fill="rgb(242,195,41)" rx="2" ry="2" />
<text  x="120.27" y="255.5" >[..</text>
</g>
</g>
</svg>
